<svg width="52" height="52" viewBox="0 0 52 52" fill="none" xmlns="http://www.w3.org/2000/svg">
<rect width="52" height="52" rx="6" fill="#1E6F9F"/>
<g clip-path="url(#clip0_401_635)">
<path d="M25.9837 19.4516C27.2757 19.4516 28.5386 19.8347 29.6128 20.5524C30.687 21.2702 31.5242 22.2904 32.0186 23.484C32.513 24.6775 32.6424 25.9909 32.3903 27.258C32.1383 28.5251 31.5161 29.689 30.6026 30.6026C29.6891 31.5161 28.5252 32.1382 27.2581 32.3903C25.991 32.6423 24.6776 32.5129 23.484 32.0185C22.2904 31.5241 21.2702 30.6869 20.5525 29.6127C19.8347 28.5385 19.4516 27.2756 19.4516 25.9837C19.4583 24.2533 20.1487 22.5957 21.3722 21.3722C22.5958 20.1486 24.2534 19.4583 25.9837 19.4516ZM25.9837 18C24.4061 18.0065 22.8658 18.4802 21.5572 19.3613C20.2486 20.2425 19.2304 21.4916 18.6311 22.951C18.0318 24.4104 17.8784 26.0146 18.1901 27.5611C18.5019 29.1077 19.2648 30.5272 20.3826 31.6404C21.5004 32.7537 22.923 33.5108 24.4708 33.8162C26.0186 34.1217 27.6222 33.9617 29.0791 33.3564C30.536 32.7512 31.781 31.7279 32.6568 30.4158C33.5326 29.1036 34 27.5613 34.0001 25.9837C34.0001 24.9325 33.7925 23.8917 33.3892 22.9209C32.986 21.9501 32.395 21.0686 31.6502 20.3268C30.9053 19.585 30.0214 18.9976 29.049 18.5983C28.0766 18.199 27.0349 17.9957 25.9837 18Z" fill="#F2F2F2"/>
<path d="M29.707 25.3813H26.4954V22.1697H25.414V25.3813H22.1987V26.4627H25.414V29.6743H26.4954V26.4627H29.707V25.3813Z" fill="#F2F2F2"/>
</g>
<defs>
<clipPath id="clip0_401_635">
<rect width="16" height="16" fill="white" transform="translate(18 18)"/>
</clipPath>
</defs>
</svg>
